<svg width="52" height="50" viewBox="0 0 52 50" fill="none" xmlns="http://www.w3.org/2000/svg">
<g clip-path="url(#paint0_diamond_236_1463_clip_path)" data-figma-skip-parse="true"><g transform="matrix(-0.00236744 0.0404197 -0.0417872 -0.00244754 25.8109 23.4434)"><rect x="0" y="0" width="692.728" height="654.588" fill="url(#paint0_diamond_236_1463)" opacity="1" shape-rendering="crispEdges"/><rect x="0" y="0" width="692.728" height="654.588" transform="scale(1 -1)" fill="url(#paint0_diamond_236_1463)" opacity="1" shape-rendering="crispEdges"/><rect x="0" y="0" width="692.728" height="654.588" transform="scale(-1 1)" fill="url(#paint0_diamond_236_1463)" opacity="1" shape-rendering="crispEdges"/><rect x="0" y="0" width="692.728" height="654.588" transform="scale(-1)" fill="url(#paint0_diamond_236_1463)" opacity="1" shape-rendering="crispEdges"/></g></g><path fill-rule="evenodd" clip-rule="evenodd" d="M25.7563 0C30.9219 0 35.1094 4.18754 35.1094 9.35311C35.1094 14.5187 30.9219 18.7062 25.7563 18.7062C20.5906 18.7062 16.4032 14.5187 16.4032 9.35311C16.4032 4.18754 20.5906 0 25.7563 0ZM10.1308 48.0336C5.95177 44.9975 5.02536 39.1482 8.06162 34.9692C11.0979 30.7901 16.947 29.8637 21.1261 32.9001C25.3051 35.9362 26.2315 41.7854 23.1954 45.9645C20.159 50.1435 14.3099 51.0699 10.1308 48.0336ZM43.4812 34.9692C46.5175 39.1482 45.5912 44.9975 41.4121 48.0336C37.233 51.0699 31.3838 50.1435 28.3477 45.9645C25.3114 41.7854 26.2377 35.9362 30.4168 32.9001C34.5959 29.8637 40.4451 30.7901 43.4812 34.9692ZM0.460301 18.333C2.05655 13.4203 7.33314 10.7318 12.2459 12.328C17.1587 13.9243 19.8473 19.2009 18.251 24.1136C16.6547 29.0263 11.3781 31.7149 6.46537 30.1186C1.5526 28.5224 -1.13595 23.2459 0.460301 18.333ZM39.2603 12.328C44.1732 10.7318 49.4497 13.4203 51.0459 18.333C52.6422 23.2459 49.9536 28.5224 45.0409 30.1186C40.128 31.7149 34.8516 29.0263 33.2553 24.1136C31.6591 19.2009 34.3476 13.9243 39.2603 12.328Z" data-figma-gradient-fill="{&#34;type&#34;:&#34;GRADIENT_DIAMOND&#34;,&#34;stops&#34;:[{&#34;color&#34;:{&#34;r&#34;:1.0,&#34;g&#34;:0.0,&#34;b&#34;:0.016666667535901070,&#34;a&#34;:1.0},&#34;position&#34;:0.0},{&#34;color&#34;:{&#34;r&#34;:0.0,&#34;g&#34;:0.68333333730697632,&#34;b&#34;:1.0,&#34;a&#34;:1.0},&#34;position&#34;:1.0}],&#34;stopsVar&#34;:[{&#34;color&#34;:{&#34;r&#34;:1.0,&#34;g&#34;:0.0,&#34;b&#34;:0.016666667535901070,&#34;a&#34;:1.0},&#34;position&#34;:0.0},{&#34;color&#34;:{&#34;r&#34;:0.0,&#34;g&#34;:0.68333333730697632,&#34;b&#34;:1.0,&#34;a&#34;:1.0},&#34;position&#34;:1.0}],&#34;transform&#34;:{&#34;m00&#34;:-4.7348852157592773,&#34;m01&#34;:-83.574455261230469,&#34;m02&#34;:69.965522766113281,&#34;m10&#34;:80.839340209960938,&#34;m11&#34;:-4.8950853347778320,&#34;m12&#34;:-14.528717994689941},&#34;opacity&#34;:1.0,&#34;blendMode&#34;:&#34;NORMAL&#34;,&#34;visible&#34;:true}"/>
<defs>
<clipPath id="paint0_diamond_236_1463_clip_path"><path fill-rule="evenodd" clip-rule="evenodd" d="M25.7563 0C30.9219 0 35.1094 4.18754 35.1094 9.35311C35.1094 14.5187 30.9219 18.7062 25.7563 18.7062C20.5906 18.7062 16.4032 14.5187 16.4032 9.35311C16.4032 4.18754 20.5906 0 25.7563 0ZM10.1308 48.0336C5.95177 44.9975 5.02536 39.1482 8.06162 34.9692C11.0979 30.7901 16.947 29.8637 21.1261 32.9001C25.3051 35.9362 26.2315 41.7854 23.1954 45.9645C20.159 50.1435 14.3099 51.0699 10.1308 48.0336ZM43.4812 34.9692C46.5175 39.1482 45.5912 44.9975 41.4121 48.0336C37.233 51.0699 31.3838 50.1435 28.3477 45.9645C25.3114 41.7854 26.2377 35.9362 30.4168 32.9001C34.5959 29.8637 40.4451 30.7901 43.4812 34.9692ZM0.460301 18.333C2.05655 13.4203 7.33314 10.7318 12.2459 12.328C17.1587 13.9243 19.8473 19.2009 18.251 24.1136C16.6547 29.0263 11.3781 31.7149 6.46537 30.1186C1.5526 28.5224 -1.13595 23.2459 0.460301 18.333ZM39.2603 12.328C44.1732 10.7318 49.4497 13.4203 51.0459 18.333C52.6422 23.2459 49.9536 28.5224 45.0409 30.1186C40.128 31.7149 34.8516 29.0263 33.2553 24.1136C31.6591 19.2009 34.3476 13.9243 39.2603 12.328Z"/></clipPath><linearGradient id="paint0_diamond_236_1463" x1="0" y1="0" x2="500" y2="500" gradientUnits="userSpaceOnUse">
<stop stop-color="#FF0004"/>
<stop offset="1" stop-color="#00AEFF"/>
</linearGradient>
</defs>
</svg>
