<svg width="55" height="53" viewBox="0 0 55 53" fill="none" xmlns="http://www.w3.org/2000/svg">
<g clip-path="url(#paint0_diamond_236_1458_clip_path)" data-figma-skip-parse="true"><g transform="matrix(0.00323358 0.0885191 -0.091514 0.00334298 24.2518 25.8686)"><rect x="0" y="0" width="313.942" height="339.043" fill="url(#paint0_diamond_236_1458)" opacity="1" shape-rendering="crispEdges"/><rect x="0" y="0" width="313.942" height="339.043" transform="scale(1 -1)" fill="url(#paint0_diamond_236_1458)" opacity="1" shape-rendering="crispEdges"/><rect x="0" y="0" width="313.942" height="339.043" transform="scale(-1 1)" fill="url(#paint0_diamond_236_1458)" opacity="1" shape-rendering="crispEdges"/><rect x="0" y="0" width="313.942" height="339.043" transform="scale(-1)" fill="url(#paint0_diamond_236_1458)" opacity="1" shape-rendering="crispEdges"/></g></g><path fill-rule="evenodd" clip-rule="evenodd" d="M27.0845 0C32.5165 0 36.92 4.40348 36.92 9.83545C36.92 15.2674 32.5165 19.6709 27.0845 19.6709C21.6525 19.6709 17.2491 15.2674 17.2491 9.83545C17.2491 4.40348 21.6525 0 27.0845 0ZM10.6533 50.5106C6.2587 47.3179 5.28451 41.1671 8.47735 36.7725C11.6702 32.3779 17.8209 31.4038 22.2155 34.5967C26.6101 37.7894 27.5842 43.9402 24.3915 48.3348C21.1986 52.7294 15.0478 53.7035 10.6533 50.5106ZM45.7235 36.7725C48.9164 41.1671 47.9423 47.3179 43.5477 50.5106C39.1531 53.7035 33.0023 52.7294 29.8096 48.3348C26.6167 43.9402 27.5908 37.7894 31.9854 34.5967C36.38 31.4038 42.5308 32.3779 45.7235 36.7725ZM0.484038 19.2784C2.16261 14.1124 7.71131 11.2852 12.8774 12.9638C18.0435 14.6423 20.8708 20.1911 19.1922 25.3571C17.5136 30.5232 11.9649 33.3504 6.79878 31.6718C1.63266 29.9933 -1.19453 24.4447 0.484038 19.2784ZM41.2849 12.9638C46.4512 11.2852 51.9998 14.1124 53.6783 19.2784C55.3569 24.4447 52.5297 29.9933 47.3636 31.6718C42.1974 33.3504 36.6488 30.5232 34.9703 25.3571C33.2917 20.1911 36.1189 14.6423 41.2849 12.9638Z" data-figma-gradient-fill="{&#34;type&#34;:&#34;GRADIENT_DIAMOND&#34;,&#34;stops&#34;:[{&#34;color&#34;:{&#34;r&#34;:0.88627451658248901,&#34;g&#34;:0.066666670143604279,&#34;b&#34;:0.56470590829849243,&#34;a&#34;:1.0},&#34;position&#34;:0.0},{&#34;color&#34;:{&#34;r&#34;:0.49411764740943909,&#34;g&#34;:0.89803922176361084,&#34;b&#34;:0.0078431377187371254,&#34;a&#34;:1.0},&#34;position&#34;:0.40384614467620850},{&#34;color&#34;:{&#34;r&#34;:0.94509804248809814,&#34;g&#34;:0.85098040103912354,&#34;b&#34;:0.082352943718433380,&#34;a&#34;:1.0},&#34;position&#34;:0.74038463830947876},{&#34;color&#34;:{&#34;r&#34;:0.38431373238563538,&#34;g&#34;:0.29411765933036804,&#34;b&#34;:0.80392158031463623,&#34;a&#34;:1.0},&#34;position&#34;:0.90865385532379150}],&#34;stopsVar&#34;:[{&#34;color&#34;:{&#34;r&#34;:0.88627451658248901,&#34;g&#34;:0.066666670143604279,&#34;b&#34;:0.56470590829849243,&#34;a&#34;:1.0},&#34;position&#34;:0.0},{&#34;color&#34;:{&#34;r&#34;:0.49411764740943909,&#34;g&#34;:0.89803922176361084,&#34;b&#34;:0.0078431377187371254,&#34;a&#34;:1.0},&#34;position&#34;:0.40384614467620850},{&#34;color&#34;:{&#34;r&#34;:0.94509804248809814,&#34;g&#34;:0.85098040103912354,&#34;b&#34;:0.082352943718433380,&#34;a&#34;:1.0},&#34;position&#34;:0.74038463830947876},{&#34;color&#34;:{&#34;r&#34;:0.38431373238563538,&#34;g&#34;:0.29411765933036804,&#34;b&#34;:0.80392158031463623,&#34;a&#34;:1.0},&#34;position&#34;:0.90865385532379150}],&#34;transform&#34;:{&#34;m00&#34;:6.4671516418457031,&#34;m01&#34;:-183.02809143066406,&#34;m02&#34;:112.53227233886719,&#34;m10&#34;:177.03817749023438,&#34;m11&#34;:6.6859617233276367,&#34;m12&#34;:-65.993476867675781},&#34;opacity&#34;:1.0,&#34;blendMode&#34;:&#34;NORMAL&#34;,&#34;visible&#34;:true}"/>
<defs>
<clipPath id="paint0_diamond_236_1458_clip_path"><path fill-rule="evenodd" clip-rule="evenodd" d="M27.0845 0C32.5165 0 36.92 4.40348 36.92 9.83545C36.92 15.2674 32.5165 19.6709 27.0845 19.6709C21.6525 19.6709 17.2491 15.2674 17.2491 9.83545C17.2491 4.40348 21.6525 0 27.0845 0ZM10.6533 50.5106C6.2587 47.3179 5.28451 41.1671 8.47735 36.7725C11.6702 32.3779 17.8209 31.4038 22.2155 34.5967C26.6101 37.7894 27.5842 43.9402 24.3915 48.3348C21.1986 52.7294 15.0478 53.7035 10.6533 50.5106ZM45.7235 36.7725C48.9164 41.1671 47.9423 47.3179 43.5477 50.5106C39.1531 53.7035 33.0023 52.7294 29.8096 48.3348C26.6167 43.9402 27.5908 37.7894 31.9854 34.5967C36.38 31.4038 42.5308 32.3779 45.7235 36.7725ZM0.484038 19.2784C2.16261 14.1124 7.71131 11.2852 12.8774 12.9638C18.0435 14.6423 20.8708 20.1911 19.1922 25.3571C17.5136 30.5232 11.9649 33.3504 6.79878 31.6718C1.63266 29.9933 -1.19453 24.4447 0.484038 19.2784ZM41.2849 12.9638C46.4512 11.2852 51.9998 14.1124 53.6783 19.2784C55.3569 24.4447 52.5297 29.9933 47.3636 31.6718C42.1974 33.3504 36.6488 30.5232 34.9703 25.3571C33.2917 20.1911 36.1189 14.6423 41.2849 12.9638Z"/></clipPath><linearGradient id="paint0_diamond_236_1458" x1="0" y1="0" x2="500" y2="500" gradientUnits="userSpaceOnUse">
<stop stop-color="#E21190"/>
<stop offset="0.403846" stop-color="#7EE502"/>
<stop offset="0.740385" stop-color="#F1D915"/>
<stop offset="0.908654" stop-color="#624BCD"/>
</linearGradient>
</defs>
</svg>
