<svg width="843" height="863" viewBox="0 0 843 863" fill="none" xmlns="http://www.w3.org/2000/svg">
<path d="M24 3.5H532C543.322 3.5 552.5 12.6782 552.5 24V193C552.5 208.188 564.812 220.5 580 220.5H819C830.322 220.5 839.5 229.678 839.5 241V839C839.5 850.322 830.322 859.5 819 859.5H24C12.6782 859.5 3.5 850.322 3.5 839V24C3.50001 12.6782 12.6782 3.5 24 3.5Z" fill="black" stroke="url(#paint0_linear_322_2)" stroke-width="7"/>
<circle cx="59.5" cy="20.5" r="2.5" fill="white"/>
<circle cx="14.5" cy="119.5" r="2.5" fill="white"/>
<circle cx="36.5" cy="140.5" r="2.5" fill="white"/>
<circle cx="59.5" cy="164.5" r="2.5" fill="white"/>
<circle cx="83.5" cy="188.5" r="2.5" fill="white"/>
<circle cx="35.5" cy="284.5" r="2.5" fill="white"/>
<circle cx="59.5" cy="308.5" r="2.5" fill="white"/>
<circle cx="83.5" cy="332.5" r="2.5" fill="white"/>
<circle cx="107.5" cy="356.5" r="2.5" fill="white"/>
<circle cx="131.5" cy="380.5" r="2.5" fill="white"/>
<circle cx="156.5" cy="404.5" r="2.5" fill="white"/>
<circle cx="179.5" cy="428.5" r="2.5" fill="white"/>
<circle cx="203.5" cy="452.5" r="2.5" fill="white"/>
<circle cx="227.5" cy="476.5" r="2.5" fill="white"/>
<circle cx="251.5" cy="500.5" r="2.5" fill="white"/>
<circle cx="275.5" cy="524.5" r="2.5" fill="white"/>
<circle cx="300.5" cy="548.5" r="2.5" fill="white"/>
<circle cx="323.5" cy="572.5" r="2.5" fill="white"/>
<circle cx="347.5" cy="596.5" r="2.5" fill="white"/>
<circle cx="371.5" cy="620.5" r="2.5" fill="white"/>
<circle cx="395.5" cy="644.5" r="2.5" fill="white"/>
<circle cx="419.5" cy="668.5" r="2.5" fill="white"/>
<circle cx="444.5" cy="691.5" r="2.5" fill="white"/>
<circle cx="467.5" cy="715.5" r="2.5" fill="white"/>
<circle cx="491.5" cy="739.5" r="2.5" fill="white"/>
<circle cx="515.5" cy="763.5" r="2.5" fill="white"/>
<circle cx="539.5" cy="787.5" r="2.5" fill="white"/>
<circle cx="563.5" cy="811.5" r="2.5" fill="white"/>
<circle cx="587.5" cy="836.5" r="2.5" fill="white"/>
<circle cx="13.5" cy="284.5" r="2.5" fill="white"/>
<circle cx="36.5" cy="308.5" r="2.5" fill="white"/>
<circle cx="60.5" cy="332.5" r="2.5" fill="white"/>
<circle cx="84.5" cy="356.5" r="2.5" fill="white"/>
<circle cx="108.5" cy="380.5" r="2.5" fill="white"/>
<circle cx="132.5" cy="404.5" r="2.5" fill="white"/>
<circle cx="157.5" cy="428.5" r="2.5" fill="white"/>
<circle cx="180.5" cy="452.5" r="2.5" fill="white"/>
<circle cx="204.5" cy="476.5" r="2.5" fill="white"/>
<circle cx="228.5" cy="500.5" r="2.5" fill="white"/>
<circle cx="14.5" cy="699.5" r="2.5" fill="white"/>
<circle cx="17.5" cy="579.5" r="2.5" fill="white"/>
<circle cx="40.5" cy="602.5" r="2.5" fill="white"/>
<circle cx="64.5" cy="627.5" r="2.5" fill="white"/>
<circle cx="87.5" cy="650.5" r="2.5" fill="white"/>
<circle cx="113.5" cy="675.5" r="2.5" fill="white"/>
<circle cx="136.5" cy="698.5" r="2.5" fill="white"/>
<circle cx="161.5" cy="723.5" r="2.5" fill="white"/>
<circle cx="184.5" cy="746.5" r="2.5" fill="white"/>
<circle cx="208.5" cy="770.5" r="2.5" fill="white"/>
<circle cx="231.5" cy="793.5" r="2.5" fill="white"/>
<circle cx="256.5" cy="818.5" r="2.5" fill="white"/>
<circle cx="279.5" cy="841.5" r="2.5" fill="white"/>
<circle cx="16.5" cy="558.5" r="2.5" fill="white"/>
<circle cx="39.5" cy="581.5" r="2.5" fill="white"/>
<circle cx="63.5" cy="606.5" r="2.5" fill="white"/>
<circle cx="86.5" cy="629.5" r="2.5" fill="white"/>
<circle cx="112.5" cy="654.5" r="2.5" fill="white"/>
<circle cx="135.5" cy="677.5" r="2.5" fill="white"/>
<circle cx="160.5" cy="702.5" r="2.5" fill="white"/>
<circle cx="183.5" cy="725.5" r="2.5" fill="white"/>
<circle cx="207.5" cy="749.5" r="2.5" fill="white"/>
<circle cx="230.5" cy="772.5" r="2.5" fill="white"/>
<circle cx="255.5" cy="797.5" r="2.5" fill="white"/>
<circle cx="278.5" cy="820.5" r="2.5" fill="white"/>
<circle cx="15.5" cy="429.5" r="2.5" fill="white"/>
<circle cx="35.5" cy="451.5" r="2.5" fill="white"/>
<circle cx="59.5" cy="476.5" r="2.5" fill="white"/>
<circle cx="82.5" cy="499.5" r="2.5" fill="white"/>
<circle cx="108.5" cy="524.5" r="2.5" fill="white"/>
<circle cx="131.5" cy="547.5" r="2.5" fill="white"/>
<circle cx="156.5" cy="572.5" r="2.5" fill="white"/>
<circle cx="179.5" cy="595.5" r="2.5" fill="white"/>
<circle cx="203.5" cy="619.5" r="2.5" fill="white"/>
<circle cx="226.5" cy="642.5" r="2.5" fill="white"/>
<circle cx="251.5" cy="667.5" r="2.5" fill="white"/>
<circle cx="274.5" cy="690.5" r="2.5" fill="white"/>
<circle cx="300.5" cy="716.5" r="2.5" fill="white"/>
<circle cx="323.5" cy="739.5" r="2.5" fill="white"/>
<circle cx="347.5" cy="764.5" r="2.5" fill="white"/>
<circle cx="370.5" cy="787.5" r="2.5" fill="white"/>
<circle cx="377.5" cy="767.5" r="2.5" fill="white"/>
<circle cx="397.5" cy="789.5" r="2.5" fill="white"/>
<circle cx="423.5" cy="812.5" r="2.5" fill="white"/>
<circle cx="446.5" cy="836.5" r="2.5" fill="white"/>
<circle cx="396.5" cy="812.5" r="2.5" fill="white"/>
<circle cx="419.5" cy="835.5" r="2.5" fill="white"/>
<circle cx="44.5" cy="431.5" r="2.5" fill="white"/>
<circle cx="67.5" cy="454.5" r="2.5" fill="white"/>
<circle cx="92.5" cy="479.5" r="2.5" fill="white"/>
<circle cx="115.5" cy="502.5" r="2.5" fill="white"/>
<circle cx="139.5" cy="526.5" r="2.5" fill="white"/>
<circle cx="162.5" cy="549.5" r="2.5" fill="white"/>
<circle cx="187.5" cy="574.5" r="2.5" fill="white"/>
<circle cx="210.5" cy="597.5" r="2.5" fill="white"/>
<circle cx="236.5" cy="623.5" r="2.5" fill="white"/>
<circle cx="259.5" cy="646.5" r="2.5" fill="white"/>
<circle cx="283.5" cy="671.5" r="2.5" fill="white"/>
<circle cx="306.5" cy="694.5" r="2.5" fill="white"/>
<circle cx="332.5" cy="719.5" r="2.5" fill="white"/>
<circle cx="355.5" cy="742.5" r="2.5" fill="white"/>
<circle cx="14.5" cy="723.5" r="2.5" fill="white"/>
<circle cx="38.5" cy="723.5" r="2.5" fill="white"/>
<circle cx="38.5" cy="746.5" r="2.5" fill="white"/>
<circle cx="62.5" cy="747.5" r="2.5" fill="white"/>
<circle cx="62.5" cy="771.5" r="2.5" fill="white"/>
<circle cx="86.5" cy="772.5" r="2.5" fill="white"/>
<circle cx="86.5" cy="795.5" r="2.5" fill="white"/>
<circle cx="110.5" cy="796.5" r="2.5" fill="white"/>
<circle cx="110.5" cy="819.5" r="2.5" fill="white"/>
<circle cx="134.5" cy="820.5" r="2.5" fill="white"/>
<circle cx="135.5" cy="843.5" r="2.5" fill="white"/>
<circle cx="158.5" cy="844.5" r="2.5" fill="white"/>
<circle cx="252.5" cy="524.5" r="2.5" fill="white"/>
<circle cx="276.5" cy="548.5" r="2.5" fill="white"/>
<circle cx="301.5" cy="572.5" r="2.5" fill="white"/>
<circle cx="324.5" cy="596.5" r="2.5" fill="white"/>
<circle cx="348.5" cy="620.5" r="2.5" fill="white"/>
<circle cx="372.5" cy="644.5" r="2.5" fill="white"/>
<circle cx="396.5" cy="668.5" r="2.5" fill="white"/>
<circle cx="420.5" cy="692.5" r="2.5" fill="white"/>
<circle cx="445.5" cy="715.5" r="2.5" fill="white"/>
<circle cx="468.5" cy="739.5" r="2.5" fill="white"/>
<circle cx="492.5" cy="763.5" r="2.5" fill="white"/>
<circle cx="516.5" cy="787.5" r="2.5" fill="white"/>
<circle cx="540.5" cy="811.5" r="2.5" fill="white"/>
<circle cx="564.5" cy="835.5" r="2.5" fill="white"/>
<circle cx="107.5" cy="212.5" r="2.5" fill="white"/>
<circle cx="131.5" cy="236.5" r="2.5" fill="white"/>
<circle cx="155.5" cy="260.5" r="2.5" fill="white"/>
<circle cx="179.5" cy="284.5" r="2.5" fill="white"/>
<circle cx="203.5" cy="308.5" r="2.5" fill="white"/>
<circle cx="227.5" cy="332.5" r="2.5" fill="white"/>
<circle cx="251.5" cy="356.5" r="2.5" fill="white"/>
<circle cx="275.5" cy="380.5" r="2.5" fill="white"/>
<circle cx="300.5" cy="404.5" r="2.5" fill="white"/>
<circle cx="323.5" cy="428.5" r="2.5" fill="white"/>
<circle cx="347.5" cy="452.5" r="2.5" fill="white"/>
<circle cx="371.5" cy="476.5" r="2.5" fill="white"/>
<circle cx="395.5" cy="500.5" r="2.5" fill="white"/>
<circle cx="419.5" cy="524.5" r="2.5" fill="white"/>
<circle cx="443.5" cy="548.5" r="2.5" fill="white"/>
<circle cx="467.5" cy="572.5" r="2.5" fill="white"/>
<circle cx="491.5" cy="596.5" r="2.5" fill="white"/>
<circle cx="515.5" cy="620.5" r="2.5" fill="white"/>
<circle cx="539.5" cy="644.5" r="2.5" fill="white"/>
<circle cx="564.5" cy="668.5" r="2.5" fill="white"/>
<circle cx="587.5" cy="692.5" r="2.5" fill="white"/>
<circle cx="611.5" cy="716.5" r="2.5" fill="white"/>
<circle cx="635.5" cy="740.5" r="2.5" fill="white"/>
<circle cx="659.5" cy="764.5" r="2.5" fill="white"/>
<circle cx="683.5" cy="788.5" r="2.5" fill="white"/>
<circle cx="707.5" cy="812.5" r="2.5" fill="white"/>
<circle cx="731.5" cy="836.5" r="2.5" fill="white"/>
<circle cx="84.5" cy="20.5" r="2.5" fill="white"/>
<circle cx="84.5" cy="44.5" r="2.5" fill="white"/>
<circle cx="107.5" cy="44.5" r="2.5" fill="white"/>
<circle cx="107.5" cy="68.5" r="2.5" fill="white"/>
<circle cx="132.5" cy="68.5" r="2.5" fill="white"/>
<circle cx="131.5" cy="92.5" r="2.5" fill="white"/>
<circle cx="155.5" cy="92.5" r="2.5" fill="white"/>
<circle cx="156.5" cy="116.5" r="2.5" fill="white"/>
<circle cx="179.5" cy="116.5" r="2.5" fill="white"/>
<circle cx="179.5" cy="140.5" r="2.5" fill="white"/>
<circle cx="203.5" cy="140.5" r="2.5" fill="white"/>
<circle cx="203.5" cy="164.5" r="2.5" fill="white"/>
<circle cx="227.5" cy="164.5" r="2.5" fill="white"/>
<circle cx="203.5" cy="20.5" r="2.5" fill="white"/>
<circle cx="227.5" cy="20.5" r="2.5" fill="white"/>
<circle cx="227.5" cy="44.5" r="2.5" fill="white"/>
<circle cx="252.5" cy="44.5" r="2.5" fill="white"/>
<circle cx="252.5" cy="68.5" r="2.5" fill="white"/>
<circle cx="275.5" cy="68.5" r="2.5" fill="white"/>
<circle cx="275.5" cy="92.5" r="2.5" fill="white"/>
<circle cx="299.5" cy="92.5" r="2.5" fill="white"/>
<circle cx="347.5" cy="20.5" r="2.5" fill="white"/>
<circle cx="371.5" cy="44.5" r="2.5" fill="white"/>
<circle cx="395.5" cy="68.5" r="2.5" fill="white"/>
<circle cx="419.5" cy="92.5" r="2.5" fill="white"/>
<circle cx="443.5" cy="116.5" r="2.5" fill="white"/>
<circle cx="468.5" cy="140.5" r="2.5" fill="white"/>
<circle cx="491.5" cy="164.5" r="2.5" fill="white"/>
<circle cx="515.5" cy="188.5" r="2.5" fill="white"/>
<circle cx="539.5" cy="212.5" r="2.5" fill="white"/>
<circle cx="539.5" cy="212.5" r="2.5" fill="white"/>
<circle cx="563.5" cy="236.5" r="2.5" fill="white"/>
<circle cx="587.5" cy="260.5" r="2.5" fill="white"/>
<circle cx="611.5" cy="284.5" r="2.5" fill="white"/>
<circle cx="636.5" cy="308.5" r="2.5" fill="white"/>
<circle cx="659.5" cy="332.5" r="2.5" fill="white"/>
<circle cx="683.5" cy="356.5" r="2.5" fill="white"/>
<circle cx="707.5" cy="380.5" r="2.5" fill="white"/>
<circle cx="707.5" cy="236.5" r="2.5" fill="white"/>
<circle cx="731.5" cy="236.5" r="2.5" fill="white"/>
<circle cx="732.5" cy="260.5" r="2.5" fill="white"/>
<circle cx="755.5" cy="260.5" r="2.5" fill="white"/>
<circle cx="755.5" cy="284.5" r="2.5" fill="white"/>
<circle cx="779.5" cy="284.5" r="2.5" fill="white"/>
<circle cx="779.5" cy="308.5" r="2.5" fill="white"/>
<circle cx="803.5" cy="308.5" r="2.5" fill="white"/>
<circle cx="803.5" cy="332.5" r="2.5" fill="white"/>
<circle cx="824.5" cy="332.5" r="2.5" fill="white"/>
<circle cx="731.5" cy="404.5" r="2.5" fill="white"/>
<circle cx="756.5" cy="428.5" r="2.5" fill="white"/>
<circle cx="779.5" cy="452.5" r="2.5" fill="white"/>
<circle cx="803.5" cy="476.5" r="2.5" fill="white"/>
<circle cx="822.5" cy="500.5" r="2.5" fill="white"/>
<circle cx="318.5" cy="17.5" r="2.5" fill="white"/>
<circle cx="342.5" cy="41.5" r="2.5" fill="white"/>
<circle cx="366.5" cy="65.5" r="2.5" fill="white"/>
<circle cx="390.5" cy="89.5" r="2.5" fill="white"/>
<circle cx="414.5" cy="113.5" r="2.5" fill="white"/>
<circle cx="439.5" cy="137.5" r="2.5" fill="white"/>
<circle cx="462.5" cy="161.5" r="2.5" fill="white"/>
<circle cx="486.5" cy="185.5" r="2.5" fill="white"/>
<circle cx="510.5" cy="209.5" r="2.5" fill="white"/>
<circle cx="534.5" cy="233.5" r="2.5" fill="white"/>
<circle cx="558.5" cy="257.5" r="2.5" fill="white"/>
<circle cx="582.5" cy="281.5" r="2.5" fill="white"/>
<circle cx="607.5" cy="305.5" r="2.5" fill="white"/>
<circle cx="630.5" cy="329.5" r="2.5" fill="white"/>
<circle cx="654.5" cy="353.5" r="2.5" fill="white"/>
<circle cx="678.5" cy="377.5" r="2.5" fill="white"/>
<circle cx="702.5" cy="401.5" r="2.5" fill="white"/>
<circle cx="727.5" cy="425.5" r="2.5" fill="white"/>
<circle cx="750.5" cy="449.5" r="2.5" fill="white"/>
<circle cx="774.5" cy="473.5" r="2.5" fill="white"/>
<circle cx="798.5" cy="497.5" r="2.5" fill="white"/>
<circle cx="299.5" cy="116.5" r="2.5" fill="white"/>
<circle cx="323.5" cy="116.5" r="2.5" fill="white"/>
<circle cx="323.5" cy="140.5" r="2.5" fill="white"/>
<circle cx="347.5" cy="140.5" r="2.5" fill="white"/>
<circle cx="347.5" cy="164.5" r="2.5" fill="white"/>
<circle cx="371.5" cy="164.5" r="2.5" fill="white"/>
<circle cx="371.5" cy="188.5" r="2.5" fill="white"/>
<circle cx="395.5" cy="188.5" r="2.5" fill="white"/>
<circle cx="395.5" cy="212.5" r="2.5" fill="white"/>
<circle cx="420.5" cy="212.5" r="2.5" fill="white"/>
<circle cx="420.5" cy="236.5" r="2.5" fill="white"/>
<circle cx="443.5" cy="236.5" r="2.5" fill="white"/>
<circle cx="443.5" cy="260.5" r="2.5" fill="white"/>
<circle cx="467.5" cy="260.5" r="2.5" fill="white"/>
<circle cx="467.5" cy="284.5" r="2.5" fill="white"/>
<circle cx="491.5" cy="284.5" r="2.5" fill="white"/>
<circle cx="491.5" cy="308.5" r="2.5" fill="white"/>
<circle cx="515.5" cy="308.5" r="2.5" fill="white"/>
<circle cx="515.5" cy="332.5" r="2.5" fill="white"/>
<circle cx="539.5" cy="332.5" r="2.5" fill="white"/>
<circle cx="539.5" cy="356.5" r="2.5" fill="white"/>
<circle cx="563.5" cy="356.5" r="2.5" fill="white"/>
<circle cx="563.5" cy="380.5" r="2.5" fill="white"/>
<circle cx="588.5" cy="380.5" r="2.5" fill="white"/>
<circle cx="588.5" cy="404.5" r="2.5" fill="white"/>
<circle cx="611.5" cy="404.5" r="2.5" fill="white"/>
<circle cx="611.5" cy="428.5" r="2.5" fill="white"/>
<circle cx="635.5" cy="428.5" r="2.5" fill="white"/>
<circle cx="635.5" cy="452.5" r="2.5" fill="white"/>
<circle cx="659.5" cy="452.5" r="2.5" fill="white"/>
<circle cx="659.5" cy="476.5" r="2.5" fill="white"/>
<circle cx="683.5" cy="476.5" r="2.5" fill="white"/>
<circle cx="683.5" cy="500.5" r="2.5" fill="white"/>
<circle cx="707.5" cy="500.5" r="2.5" fill="white"/>
<circle cx="707.5" cy="524.5" r="2.5" fill="white"/>
<circle cx="731.5" cy="524.5" r="2.5" fill="white"/>
<circle cx="731.5" cy="548.5" r="2.5" fill="white"/>
<circle cx="756.5" cy="548.5" r="2.5" fill="white"/>
<circle cx="756.5" cy="572.5" r="2.5" fill="white"/>
<circle cx="779.5" cy="572.5" r="2.5" fill="white"/>
<circle cx="779.5" cy="596.5" r="2.5" fill="white"/>
<circle cx="803.5" cy="596.5" r="2.5" fill="white"/>
<circle cx="803.5" cy="620.5" r="2.5" fill="white"/>
<circle cx="822.5" cy="643.5" r="2.5" fill="white"/>
<circle cx="227.5" cy="188.5" r="2.5" fill="white"/>
<circle cx="252.5" cy="188.5" r="2.5" fill="white"/>
<circle cx="252.5" cy="212.5" r="2.5" fill="white"/>
<circle cx="275.5" cy="212.5" r="2.5" fill="white"/>
<circle cx="275.5" cy="236.5" r="2.5" fill="white"/>
<circle cx="300.5" cy="236.5" r="2.5" fill="white"/>
<circle cx="300.5" cy="260.5" r="2.5" fill="white"/>
<circle cx="324.5" cy="260.5" r="2.5" fill="white"/>
<circle cx="324.5" cy="284.5" r="2.5" fill="white"/>
<circle cx="348.5" cy="284.5" r="2.5" fill="white"/>
<circle cx="347.5" cy="308.5" r="2.5" fill="white"/>
<circle cx="371.5" cy="308.5" r="2.5" fill="white"/>
<circle cx="371.5" cy="332.5" r="2.5" fill="white"/>
<circle cx="396.5" cy="332.5" r="2.5" fill="white"/>
<circle cx="395.5" cy="356.5" r="2.5" fill="white"/>
<circle cx="419.5" cy="356.5" r="2.5" fill="white"/>
<circle cx="419.5" cy="380.5" r="2.5" fill="white"/>
<circle cx="443.5" cy="404.5" r="2.5" fill="white"/>
<circle cx="467.5" cy="404.5" r="2.5" fill="white"/>
<circle cx="466.5" cy="428.5" r="2.5" fill="white"/>
<circle cx="490.5" cy="428.5" r="2.5" fill="white"/>
<circle cx="490.5" cy="452.5" r="2.5" fill="white"/>
<circle cx="515.5" cy="452.5" r="2.5" fill="white"/>
<circle cx="514.5" cy="476.5" r="2.5" fill="white"/>
<circle cx="538.5" cy="476.5" r="2.5" fill="white"/>
<circle cx="538.5" cy="500.5" r="2.5" fill="white"/>
<circle cx="557.5" cy="508.5" r="2.5" fill="white"/>
<circle cx="556.5" cy="532.5" r="2.5" fill="white"/>
<circle cx="580.5" cy="532.5" r="2.5" fill="white"/>
<circle cx="580.5" cy="556.5" r="2.5" fill="white"/>
<circle cx="605.5" cy="556.5" r="2.5" fill="white"/>
<circle cx="604.5" cy="580.5" r="2.5" fill="white"/>
<circle cx="628.5" cy="580.5" r="2.5" fill="white"/>
<circle cx="628.5" cy="604.5" r="2.5" fill="white"/>
<circle cx="672.5" cy="616.5" r="2.5" fill="white"/>
<circle cx="672.5" cy="640.5" r="2.5" fill="white"/>
<circle cx="697.5" cy="640.5" r="2.5" fill="white"/>
<circle cx="696.5" cy="664.5" r="2.5" fill="white"/>
<circle cx="720.5" cy="664.5" r="2.5" fill="white"/>
<circle cx="746.5" cy="688.5" r="2.5" fill="white"/>
<circle cx="746.5" cy="712.5" r="2.5" fill="white"/>
<circle cx="790.5" cy="724.5" r="2.5" fill="white"/>
<circle cx="790.5" cy="748.5" r="2.5" fill="white"/>
<circle cx="815.5" cy="748.5" r="2.5" fill="white"/>
<circle cx="814.5" cy="772.5" r="2.5" fill="white"/>
<circle cx="720.5" cy="688.5" r="2.5" fill="white"/>
<circle cx="443.5" cy="380.5" r="2.5" fill="white"/>
<path d="M589 3.5H819C830.322 3.5 839.5 12.6782 839.5 24V184C839.5 195.322 830.322 204.5 819 204.5H581C574.096 204.5 568.5 198.904 568.5 192V24C568.5 12.6782 577.678 3.5 589 3.5Z" stroke="url(#paint1_linear_322_2)" stroke-width="7"/>
<defs>
<linearGradient id="paint0_linear_322_2" x1="421.5" y1="0" x2="421.5" y2="863" gradientUnits="userSpaceOnUse">
<stop stop-color="#FE5502"/>
<stop offset="0.264423" stop-color="#7EE502"/>
<stop offset="0.524038" stop-color="#28C9FF"/>
<stop offset="0.769231" stop-color="#F1D915"/>
<stop offset="0.951923" stop-color="#624BCD"/>
</linearGradient>
<linearGradient id="paint1_linear_322_2" x1="704" y1="0" x2="704" y2="949.453" gradientUnits="userSpaceOnUse">
<stop stop-color="#FE5502"/>
<stop offset="0.264423" stop-color="#7EE502"/>
<stop offset="0.524038" stop-color="#28C9FF"/>
<stop offset="0.769231" stop-color="#F1D915"/>
<stop offset="0.951923" stop-color="#624BCD"/>
</linearGradient>
</defs>
</svg>
