<svg width="284" height="84" viewBox="0 0 284 84" fill="none" xmlns="http://www.w3.org/2000/svg">
<rect y="5.14685" width="70.7817" height="70.7817" fill="url(#paint0_radial_240_690)"/>
<path d="M17.95 63V58.255L30.95 47.01C32.12 46.0133 33.3983 44.93 34.785 43.76C36.215 42.5467 37.5583 41.2467 38.815 39.86C40.115 38.4733 41.1767 37 42 35.44C42.8667 33.8367 43.3 32.1467 43.3 30.37C43.3 27.5967 42.4767 25.4733 40.83 24C39.1833 22.4833 36.9733 21.725 34.2 21.725C31.99 21.725 30.0617 22.18 28.415 23.09C26.7683 24 25.685 25.3217 25.165 27.055H19.12C19.5533 24.6717 20.5283 22.7217 22.045 21.205C23.605 19.645 25.4683 18.475 27.635 17.695C29.845 16.915 32.12 16.525 34.46 16.525C37.32 16.525 39.8333 17.045 42 18.085C44.21 19.125 45.9217 20.6417 47.135 22.635C48.3917 24.585 49.02 26.99 49.02 29.85C49.02 32.6667 48.4783 35.1367 47.395 37.26C46.355 39.3833 44.9683 41.3117 43.235 43.045C41.545 44.735 39.725 46.4033 37.775 48.05L26.14 57.865H49.54V63H17.95Z" fill="black"/>
<rect x="70.7812" y="5.14685" width="70.7817" height="70.7817" fill="url(#paint1_radial_240_690)"/>
<path d="M105.645 64.52C102.438 64.52 99.6867 63.935 97.39 62.765C95.1367 61.5517 93.295 59.8833 91.865 57.76C90.435 55.5933 89.3733 53.1017 88.68 50.285C88.03 47.425 87.705 44.3483 87.705 41.055C87.705 37.7617 88.03 34.7067 88.68 31.89C89.33 29.03 90.37 26.5383 91.8 24.415C93.23 22.2483 95.0717 20.5583 97.325 19.345C99.6217 18.1317 102.395 17.525 105.645 17.525C109.068 17.525 111.928 18.1967 114.225 19.54C116.565 20.84 118.407 22.6167 119.75 24.87C121.137 27.1233 122.112 29.6583 122.675 32.475C123.282 35.2483 123.585 38.1083 123.585 41.055C123.585 44.0017 123.282 46.8833 122.675 49.7C122.112 52.4733 121.137 54.9867 119.75 57.24C118.407 59.45 116.565 61.2267 114.225 62.57C111.928 63.87 109.068 64.52 105.645 64.52ZM105.645 59.385C108.202 59.385 110.26 58.8433 111.82 57.76C113.423 56.6333 114.658 55.16 115.525 53.34C116.392 51.52 116.977 49.5483 117.28 47.425C117.583 45.2583 117.735 43.135 117.735 41.055C117.735 39.0183 117.583 36.9383 117.28 34.815C116.977 32.6483 116.392 30.655 115.525 28.835C114.658 26.9717 113.423 25.4767 111.82 24.35C110.26 23.2233 108.202 22.66 105.645 22.66C103.045 22.66 100.943 23.2233 99.34 24.35C97.7367 25.4767 96.5017 26.9717 95.635 28.835C94.8117 30.655 94.2483 32.6483 93.945 34.815C93.6417 36.9383 93.49 39.0183 93.49 41.055C93.49 43.135 93.6417 45.2583 93.945 47.425C94.2483 49.5483 94.8117 51.52 95.635 53.34C96.5017 55.16 97.7367 56.6333 99.34 57.76C100.943 58.8433 103.045 59.385 105.645 59.385Z" fill="black"/>
<rect x="141.563" y="5.14685" width="70.7817" height="70.7817" fill="url(#paint2_radial_240_690)"/>
<path d="M159.95 64V59.255L172.95 48.01C174.12 47.0133 175.398 45.93 176.785 44.76C178.215 43.5467 179.558 42.2467 180.815 40.86C182.115 39.4733 183.177 38 184 36.44C184.867 34.8367 185.3 33.1467 185.3 31.37C185.3 28.5967 184.477 26.4733 182.83 25C181.183 23.4833 178.973 22.725 176.2 22.725C173.99 22.725 172.062 23.18 170.415 24.09C168.768 25 167.685 26.3217 167.165 28.055H161.12C161.553 25.6717 162.528 23.7217 164.045 22.205C165.605 20.645 167.468 19.475 169.635 18.695C171.845 17.915 174.12 17.525 176.46 17.525C179.32 17.525 181.833 18.045 184 19.085C186.21 20.125 187.922 21.6417 189.135 23.635C190.392 25.585 191.02 27.99 191.02 30.85C191.02 33.6667 190.478 36.1367 189.395 38.26C188.355 40.3833 186.968 42.3117 185.235 44.045C183.545 45.735 181.725 47.4033 179.775 49.05L168.14 58.865H191.54V64H159.95Z" fill="black"/>
<rect x="212.346" y="5.14685" width="70.7817" height="70.7817" fill="url(#paint3_radial_240_690)"/>
<path d="M248.32 63.52C245.2 63.52 242.513 62.935 240.26 61.765C238.05 60.5517 236.23 58.9267 234.8 56.89C233.413 54.81 232.395 52.47 231.745 49.87C231.095 47.2267 230.77 44.4533 230.77 41.55C230.77 38.1267 231.095 34.92 231.745 31.93C232.438 28.8967 233.5 26.2317 234.93 23.935C236.403 21.6383 238.31 19.84 240.65 18.54C242.99 17.1967 245.807 16.525 249.1 16.525C251.31 16.525 253.368 16.915 255.275 17.695C257.225 18.4317 258.915 19.5583 260.345 21.075C261.775 22.5483 262.837 24.3683 263.53 26.535H257.615C256.835 24.9317 255.643 23.7183 254.04 22.895C252.437 22.0717 250.768 21.66 249.035 21.66C247.042 21.66 245.33 22.05 243.9 22.83C242.47 23.5667 241.257 24.5633 240.26 25.82C239.307 27.0767 238.527 28.5067 237.92 30.11C237.357 31.7133 236.945 33.3817 236.685 35.115C236.425 36.8483 236.295 38.5383 236.295 40.185C237.292 38.6683 238.44 37.4333 239.74 36.48C241.083 35.5267 242.535 34.8333 244.095 34.4C245.698 33.9233 247.323 33.685 248.97 33.685C252.003 33.685 254.625 34.3133 256.835 35.57C259.088 36.7833 260.843 38.495 262.1 40.705C263.357 42.8717 263.985 45.385 263.985 48.245C263.985 51.2783 263.313 53.9433 261.97 56.24C260.627 58.5367 258.763 60.335 256.38 61.635C254.04 62.8917 251.353 63.52 248.32 63.52ZM248.19 58.385C250.14 58.385 251.852 57.9733 253.325 57.15C254.842 56.2833 256.033 55.135 256.9 53.705C257.767 52.2317 258.2 50.6067 258.2 48.83C258.2 46.9233 257.788 45.2333 256.965 43.76C256.142 42.2867 254.993 41.1167 253.52 40.25C252.09 39.3833 250.4 38.95 248.45 38.95C246.673 38.95 244.983 39.3617 243.38 40.185C241.777 40.965 240.477 42.0917 239.48 43.565C238.527 44.995 238.05 46.7067 238.05 48.7C238.05 50.52 238.483 52.1667 239.35 53.64C240.26 55.07 241.473 56.2183 242.99 57.085C244.55 57.9517 246.283 58.385 248.19 58.385Z" fill="black"/>
<defs>
<radialGradient id="paint0_radial_240_690" cx="0" cy="0" r="1" gradientUnits="userSpaceOnUse" gradientTransform="translate(35.3909 40.5377) rotate(90) scale(35.3909)">
<stop offset="0.125" stop-color="#E21190"/>
<stop offset="0.528846" stop-color="#8E30CF"/>
<stop offset="0.846154" stop-color="#08D84E"/>
</radialGradient>
<radialGradient id="paint1_radial_240_690" cx="0" cy="0" r="1" gradientUnits="userSpaceOnUse" gradientTransform="translate(106.172 40.5377) rotate(90) scale(35.3909)">
<stop offset="0.00961538" stop-color="#F1D915"/>
<stop offset="0.721154" stop-color="#FF8C00"/>
<stop offset="0.903846" stop-color="#019DB4"/>
</radialGradient>
<radialGradient id="paint2_radial_240_690" cx="0" cy="0" r="1" gradientUnits="userSpaceOnUse" gradientTransform="translate(176.954 40.5377) rotate(90) scale(35.3909)">
<stop offset="0.764423" stop-color="#28C9FF"/>
<stop offset="1" stop-color="#F83F42"/>
</radialGradient>
<radialGradient id="paint3_radial_240_690" cx="0" cy="0" r="1" gradientUnits="userSpaceOnUse" gradientTransform="translate(247.737 40.5377) rotate(90) scale(35.3909)">
<stop offset="0.759615" stop-color="#7EE502"/>
<stop offset="1" stop-color="#FF8C00"/>
</radialGradient>
</defs>
</svg>
