<svg width="69" height="67" viewBox="0 0 69 67" fill="none" xmlns="http://www.w3.org/2000/svg">
<g clip-path="url(#paint0_diamond_332_3_clip_path)" data-figma-skip-parse="true"><g transform="matrix(0.0254644 0.0419482 -0.0433675 0.026326 34.3567 33.2323)"><rect x="0" y="0" width="949.504" height="925.874" fill="url(#paint0_diamond_332_3)" opacity="1" shape-rendering="crispEdges"/><rect x="0" y="0" width="949.504" height="925.874" transform="scale(1 -1)" fill="url(#paint0_diamond_332_3)" opacity="1" shape-rendering="crispEdges"/><rect x="0" y="0" width="949.504" height="925.874" transform="scale(-1 1)" fill="url(#paint0_diamond_332_3)" opacity="1" shape-rendering="crispEdges"/><rect x="0" y="0" width="949.504" height="925.874" transform="scale(-1)" fill="url(#paint0_diamond_332_3)" opacity="1" shape-rendering="crispEdges"/></g></g><path fill-rule="evenodd" clip-rule="evenodd" d="M34.3609 0C41.2523 0 46.8387 5.58651 46.8387 12.4778C46.8387 19.3691 41.2523 24.9556 34.3609 24.9556C27.4696 24.9556 21.8831 19.3691 21.8831 12.4778C21.8831 5.58651 27.4696 0 34.3609 0ZM13.5153 64.0806C7.94014 60.0302 6.70423 52.2269 10.7548 46.6517C14.8054 41.0765 22.6086 39.8406 28.1838 43.8913C33.7591 47.9417 34.9949 55.7451 30.9445 61.3203C26.8938 66.8955 19.0905 68.1313 13.5153 64.0806ZM58.0074 46.6517C62.0581 52.2269 60.8223 60.0302 55.2471 64.0806C49.6719 68.1313 41.8685 66.8955 37.8181 61.3203C33.7674 55.7451 35.0032 47.9417 40.5785 43.8913C46.1537 39.8406 53.957 41.0765 58.0074 46.6517ZM0.614078 24.4577C2.74361 17.9038 9.783 14.317 16.337 16.4466C22.8911 18.5761 26.4778 25.6156 24.3483 32.1695C22.2188 38.7234 15.1793 42.3102 8.62532 40.1807C2.07129 38.0511 -1.51545 31.0119 0.614078 24.4577ZM52.3764 16.4466C58.9306 14.317 65.9698 17.9038 68.0994 24.4577C70.2289 31.0119 66.6421 38.0511 60.0882 40.1807C53.534 42.3102 46.4948 38.7234 44.3652 32.1695C42.2357 25.6156 45.8225 18.5761 52.3764 16.4466Z" data-figma-gradient-fill="{&#34;type&#34;:&#34;GRADIENT_DIAMOND&#34;,&#34;stops&#34;:[{&#34;color&#34;:{&#34;r&#34;:0.38431373238563538,&#34;g&#34;:0.29411765933036804,&#34;b&#34;:0.80392158031463623,&#34;a&#34;:1.0},&#34;position&#34;:0.37019231915473938},{&#34;color&#34;:{&#34;r&#34;:0.99607843160629272,&#34;g&#34;:0.33333334326744080,&#34;b&#34;:0.0078431377187371254,&#34;a&#34;:1.0},&#34;position&#34;:0.73557692766189575}],&#34;stopsVar&#34;:[{&#34;color&#34;:{&#34;r&#34;:0.38431373238563538,&#34;g&#34;:0.29411765933036804,&#34;b&#34;:0.80392158031463623,&#34;a&#34;:1.0},&#34;position&#34;:0.37019231915473938},{&#34;color&#34;:{&#34;r&#34;:0.99607843160629272,&#34;g&#34;:0.33333334326744080,&#34;b&#34;:0.0078431377187371254,&#34;a&#34;:1.0},&#34;position&#34;:0.73557692766189575}],&#34;transform&#34;:{&#34;m00&#34;:50.928779602050781,&#34;m01&#34;:-86.735046386718750,&#34;m02&#34;:52.259853363037109,&#34;m10&#34;:83.896499633789062,&#34;m11&#34;:52.651905059814453,&#34;m12&#34;:-35.041862487792969},&#34;opacity&#34;:1.0,&#34;blendMode&#34;:&#34;NORMAL&#34;,&#34;visible&#34;:true}"/>
<defs>
<clipPath id="paint0_diamond_332_3_clip_path"><path fill-rule="evenodd" clip-rule="evenodd" d="M34.3609 0C41.2523 0 46.8387 5.58651 46.8387 12.4778C46.8387 19.3691 41.2523 24.9556 34.3609 24.9556C27.4696 24.9556 21.8831 19.3691 21.8831 12.4778C21.8831 5.58651 27.4696 0 34.3609 0ZM13.5153 64.0806C7.94014 60.0302 6.70423 52.2269 10.7548 46.6517C14.8054 41.0765 22.6086 39.8406 28.1838 43.8913C33.7591 47.9417 34.9949 55.7451 30.9445 61.3203C26.8938 66.8955 19.0905 68.1313 13.5153 64.0806ZM58.0074 46.6517C62.0581 52.2269 60.8223 60.0302 55.2471 64.0806C49.6719 68.1313 41.8685 66.8955 37.8181 61.3203C33.7674 55.7451 35.0032 47.9417 40.5785 43.8913C46.1537 39.8406 53.957 41.0765 58.0074 46.6517ZM0.614078 24.4577C2.74361 17.9038 9.783 14.317 16.337 16.4466C22.8911 18.5761 26.4778 25.6156 24.3483 32.1695C22.2188 38.7234 15.1793 42.3102 8.62532 40.1807C2.07129 38.0511 -1.51545 31.0119 0.614078 24.4577ZM52.3764 16.4466C58.9306 14.317 65.9698 17.9038 68.0994 24.4577C70.2289 31.0119 66.6421 38.0511 60.0882 40.1807C53.534 42.3102 46.4948 38.7234 44.3652 32.1695C42.2357 25.6156 45.8225 18.5761 52.3764 16.4466Z"/></clipPath><linearGradient id="paint0_diamond_332_3" x1="0" y1="0" x2="500" y2="500" gradientUnits="userSpaceOnUse">
<stop offset="0.370192" stop-color="#624BCD"/>
<stop offset="0.735577" stop-color="#FE5502"/>
</linearGradient>
</defs>
</svg>
