<svg width="284" height="83" viewBox="0 0 284 83" fill="none" xmlns="http://www.w3.org/2000/svg">
<rect y="6" width="70.7817" height="70.7817" fill="url(#paint0_radial_206_33)"/>
<rect x="71" y="6" width="70.7817" height="70.7817" fill="url(#paint1_radial_206_33)"/>
<rect x="71" y="6" width="70.7817" height="70.7817" fill="url(#paint2_radial_206_33)"/>
<rect x="142" y="6" width="70.7817" height="70.7817" fill="url(#paint3_radial_206_33)"/>
<rect x="142" y="6" width="70.7817" height="70.7817" fill="url(#paint4_radial_206_33)"/>
<rect x="213" y="6" width="70.7817" height="70.7817" fill="url(#paint5_radial_206_33)"/>
<path d="M17.95 63V58.255L30.95 47.01C32.12 46.0133 33.3983 44.93 34.785 43.76C36.215 42.5467 37.5583 41.2467 38.815 39.86C40.115 38.4733 41.1767 37 42 35.44C42.8667 33.8367 43.3 32.1467 43.3 30.37C43.3 27.5967 42.4767 25.4733 40.83 24C39.1833 22.4833 36.9733 21.725 34.2 21.725C31.99 21.725 30.0617 22.18 28.415 23.09C26.7683 24 25.685 25.3217 25.165 27.055H19.12C19.5533 24.6717 20.5283 22.7217 22.045 21.205C23.605 19.645 25.4683 18.475 27.635 17.695C29.845 16.915 32.12 16.525 34.46 16.525C37.32 16.525 39.8333 17.045 42 18.085C44.21 19.125 45.9217 20.6417 47.135 22.635C48.3917 24.585 49.02 26.99 49.02 29.85C49.02 32.6667 48.4783 35.1367 47.395 37.26C46.355 39.3833 44.9683 41.3117 43.235 43.045C41.545 44.735 39.725 46.4033 37.775 48.05L26.14 57.865H49.54V63H17.95Z" fill="black"/>
<path d="M108.645 63.52C105.438 63.52 102.687 62.935 100.39 61.765C98.1367 60.5517 96.295 58.8833 94.865 56.76C93.435 54.5933 92.3733 52.1017 91.68 49.285C91.03 46.425 90.705 43.3483 90.705 40.055C90.705 36.7617 91.03 33.7067 91.68 30.89C92.33 28.03 93.37 25.5383 94.8 23.415C96.23 21.2483 98.0717 19.5583 100.325 18.345C102.622 17.1317 105.395 16.525 108.645 16.525C112.068 16.525 114.928 17.1967 117.225 18.54C119.565 19.84 121.407 21.6167 122.75 23.87C124.137 26.1233 125.112 28.6583 125.675 31.475C126.282 34.2483 126.585 37.1083 126.585 40.055C126.585 43.0017 126.282 45.8833 125.675 48.7C125.112 51.4733 124.137 53.9867 122.75 56.24C121.407 58.45 119.565 60.2267 117.225 61.57C114.928 62.87 112.068 63.52 108.645 63.52ZM108.645 58.385C111.202 58.385 113.26 57.8433 114.82 56.76C116.423 55.6333 117.658 54.16 118.525 52.34C119.392 50.52 119.977 48.5483 120.28 46.425C120.583 44.2583 120.735 42.135 120.735 40.055C120.735 38.0183 120.583 35.9383 120.28 33.815C119.977 31.6483 119.392 29.655 118.525 27.835C117.658 25.9717 116.423 24.4767 114.82 23.35C113.26 22.2233 111.202 21.66 108.645 21.66C106.045 21.66 103.943 22.2233 102.34 23.35C100.737 24.4767 99.5017 25.9717 98.635 27.835C97.8117 29.655 97.2483 31.6483 96.945 33.815C96.6417 35.9383 96.49 38.0183 96.49 40.055C96.49 42.135 96.6417 44.2583 96.945 46.425C97.2483 48.5483 97.8117 50.52 98.635 52.34C99.5017 54.16 100.737 55.6333 102.34 56.76C103.943 57.8433 106.045 58.385 108.645 58.385Z" fill="black"/>
<path d="M159.95 63V58.255L172.95 47.01C174.12 46.0133 175.398 44.93 176.785 43.76C178.215 42.5467 179.558 41.2467 180.815 39.86C182.115 38.4733 183.177 37 184 35.44C184.867 33.8367 185.3 32.1467 185.3 30.37C185.3 27.5967 184.477 25.4733 182.83 24C181.183 22.4833 178.973 21.725 176.2 21.725C173.99 21.725 172.062 22.18 170.415 23.09C168.768 24 167.685 25.3217 167.165 27.055H161.12C161.553 24.6717 162.528 22.7217 164.045 21.205C165.605 19.645 167.468 18.475 169.635 17.695C171.845 16.915 174.12 16.525 176.46 16.525C179.32 16.525 181.833 17.045 184 18.085C186.21 19.125 187.922 20.6417 189.135 22.635C190.392 24.585 191.02 26.99 191.02 29.85C191.02 32.6667 190.478 35.1367 189.395 37.26C188.355 39.3833 186.968 41.3117 185.235 43.045C183.545 44.735 181.725 46.4033 179.775 48.05L168.14 57.865H191.54V63H159.95Z" fill="black"/>
<path d="M250.32 63.52C247.2 63.52 244.513 62.935 242.26 61.765C240.05 60.5517 238.23 58.9267 236.8 56.89C235.413 54.81 234.395 52.47 233.745 49.87C233.095 47.2267 232.77 44.4533 232.77 41.55C232.77 38.1267 233.095 34.92 233.745 31.93C234.438 28.8967 235.5 26.2317 236.93 23.935C238.403 21.6383 240.31 19.84 242.65 18.54C244.99 17.1967 247.807 16.525 251.1 16.525C253.31 16.525 255.368 16.915 257.275 17.695C259.225 18.4317 260.915 19.5583 262.345 21.075C263.775 22.5483 264.837 24.3683 265.53 26.535H259.615C258.835 24.9317 257.643 23.7183 256.04 22.895C254.437 22.0717 252.768 21.66 251.035 21.66C249.042 21.66 247.33 22.05 245.9 22.83C244.47 23.5667 243.257 24.5633 242.26 25.82C241.307 27.0767 240.527 28.5067 239.92 30.11C239.357 31.7133 238.945 33.3817 238.685 35.115C238.425 36.8483 238.295 38.5383 238.295 40.185C239.292 38.6683 240.44 37.4333 241.74 36.48C243.083 35.5267 244.535 34.8333 246.095 34.4C247.698 33.9233 249.323 33.685 250.97 33.685C254.003 33.685 256.625 34.3133 258.835 35.57C261.088 36.7833 262.843 38.495 264.1 40.705C265.357 42.8717 265.985 45.385 265.985 48.245C265.985 51.2783 265.313 53.9433 263.97 56.24C262.627 58.5367 260.763 60.335 258.38 61.635C256.04 62.8917 253.353 63.52 250.32 63.52ZM250.19 58.385C252.14 58.385 253.852 57.9733 255.325 57.15C256.842 56.2833 258.033 55.135 258.9 53.705C259.767 52.2317 260.2 50.6067 260.2 48.83C260.2 46.9233 259.788 45.2333 258.965 43.76C258.142 42.2867 256.993 41.1167 255.52 40.25C254.09 39.3833 252.4 38.95 250.45 38.95C248.673 38.95 246.983 39.3617 245.38 40.185C243.777 40.965 242.477 42.0917 241.48 43.565C240.527 44.995 240.05 46.7067 240.05 48.7C240.05 50.52 240.483 52.1667 241.35 53.64C242.26 55.07 243.473 56.2183 244.99 57.085C246.55 57.9517 248.283 58.385 250.19 58.385Z" fill="black"/>
<defs>
<radialGradient id="paint0_radial_206_33" cx="0" cy="0" r="1" gradientUnits="userSpaceOnUse" gradientTransform="translate(35.3909 41.3909) rotate(90) scale(35.3909)">
<stop offset="0.125" stop-color="#E21190"/>
<stop offset="0.528846" stop-color="#8E30CF"/>
<stop offset="0.846154" stop-color="#08D84E"/>
</radialGradient>
<radialGradient id="paint1_radial_206_33" cx="0" cy="0" r="1" gradientUnits="userSpaceOnUse" gradientTransform="translate(106.391 41.3909) rotate(90) scale(35.3909)">
<stop offset="0.764423" stop-color="#28C9FF"/>
<stop offset="1" stop-color="#F83F42"/>
</radialGradient>
<radialGradient id="paint2_radial_206_33" cx="0" cy="0" r="1" gradientUnits="userSpaceOnUse" gradientTransform="translate(106.391 41.3909) rotate(90) scale(35.3909)">
<stop offset="0.00961538" stop-color="#F1D915"/>
<stop offset="0.721154" stop-color="#FF8C00"/>
<stop offset="0.903846" stop-color="#019DB4"/>
</radialGradient>
<radialGradient id="paint3_radial_206_33" cx="0" cy="0" r="1" gradientUnits="userSpaceOnUse" gradientTransform="translate(177.391 41.3909) rotate(90) scale(35.3909)">
<stop offset="0.759615" stop-color="#7EE502"/>
<stop offset="1" stop-color="#FF8C00"/>
</radialGradient>
<radialGradient id="paint4_radial_206_33" cx="0" cy="0" r="1" gradientUnits="userSpaceOnUse" gradientTransform="translate(177.391 41.3909) rotate(90) scale(35.3909)">
<stop offset="0.764423" stop-color="#28C9FF"/>
<stop offset="1" stop-color="#F83F42"/>
</radialGradient>
<radialGradient id="paint5_radial_206_33" cx="0" cy="0" r="1" gradientUnits="userSpaceOnUse" gradientTransform="translate(248.391 41.3909) rotate(90) scale(35.3909)">
<stop offset="0.759615" stop-color="#7EE502"/>
<stop offset="1" stop-color="#FF8C00"/>
</radialGradient>
</defs>
</svg>
