<svg width="249" height="254" viewBox="0 0 249 254" fill="none" xmlns="http://www.w3.org/2000/svg">
<path d="M126.537 129.422C127.455 129.341 127.95 131.043 126.537 131.931C125.288 132.877 122.37 132.19 121.537 129.422C120.546 126.808 122.451 122.718 126.537 121.896C130.459 120.873 135.769 123.965 136.535 129.422C137.602 134.699 133.293 141.236 126.537 141.967C119.942 143.071 112.233 137.546 111.538 129.422C110.386 121.465 117.119 112.52 126.537 111.861C135.792 110.684 145.929 118.618 146.534 129.422C147.753 140.074 138.63 151.41 126.537 152.002C114.59 153.259 102.096 142.913 101.539 129.422C100.268 116.114 111.753 102.327 126.537 101.825C141.158 100.496 156.047 113.251 156.533 129.422C157.89 145.417 143.986 161.608 126.537 162.038C109.252 163.433 91.9399 148.274 91.5401 129.422C90.112 110.747 106.415 92.1481 126.537 91.7891C146.491 90.3036 166.203 107.899 166.532 129.422C168.032 150.769 149.329 171.8 126.537 172.073C103.911 173.626 81.7992 153.632 81.5414 129.422C79.9703 105.376 101.078 81.9743 126.537 81.7544C151.828 80.1483 176.359 102.513 176.53 129.422C178.187 156.15 154.661 181.961 126.537 182.108C98.5776 183.786 71.6428 159.013 71.5429 129.422C69.8144 100.018 95.7398 71.7855 126.537 71.7186C157.166 69.9457 186.501 97.1747 186.529 129.422C188.329 161.507 160.004 192.154 126.537 192.144C93.2406 193.979 61.4869 164.37 61.544 129.422C59.6585 94.6571 90.4068 61.6067 126.537 61.6831C162.522 59.7716 196.638 91.8086 196.528 129.422C198.466 166.864 165.36 202.342 126.537 202.18C87.8745 204.172 51.369 169.722 51.5452 129.422C49.5407 89.2997 85.0416 51.4135 126.537 51.6477C167.859 49.5785 206.793 86.4561 206.526 129.422C208.617 172.24 170.697 212.516 126.537 212.215C82.5415 214.351 41.2084 175.084 41.5464 129.422C39.3848 83.9336 79.7037 41.2252 126.537 41.6123C173.202 39.3901 216.935 81.09 216.525 129.422C218.759 177.612 176.04 222.69 126.537 222.25C77.2084 224.525 31.0525 180.459 31.5477 129.422C29.2241 78.547 74.3711 31.0702 126.537 31.5768C178.539 29.2304 227.086 75.704 226.524 129.422C228.919 182.968 181.372 232.883 126.537 232.286C71.8619 234.713 20.9156 185.817 21.5489 129.422C19.0872 73.1952 69.0289 20.8771 126.537 21.5414C183.872 19.0372 237.241 70.3518 236.523 129.422C239.075 188.331 186.705 243.062 126.537 242.322C66.5101 244.897 10.7787 191.174 11.55 129.422C8.95036 67.8573 63.6723 10.6744 126.537 11.5059C189.238 8.84888 247.365 64.9949 246.521 129.422C249.193 193.683 192.071 253.255 126.537 252.356C61.1726 255.09 0.622854 196.531 1.55132 129.422C-1.20558 62.4812 58.3349 0.500364 126.537 1.47047" stroke="url(#paint0_linear_318_271)" stroke-width="2.91848" stroke-linecap="round"/>
<defs>
<linearGradient id="paint0_linear_318_271" x1="124.035" y1="1.45923" x2="124.035" y2="252.448" gradientUnits="userSpaceOnUse">
<stop stop-color="#28C9FF"/>
<stop offset="0.264423" stop-color="#FFC000"/>
<stop offset="0.471154" stop-color="#7EE502"/>
<stop offset="0.769231" stop-color="#E21190"/>
<stop offset="0.985577" stop-color="#1500FF"/>
</linearGradient>
</defs>
</svg>
