<svg width="84" height="81" viewBox="0 0 84 81" fill="none" xmlns="http://www.w3.org/2000/svg">
<g clip-path="url(#paint0_diamond_332_4_clip_path)" data-figma-skip-parse="true"><g transform="matrix(0.0177847 0.0404197 -0.0417872 0.0183864 42.0365 40.4197)"><rect x="0" y="0" width="1230.61" height="1205.85" fill="url(#paint0_diamond_332_4)" opacity="1" shape-rendering="crispEdges"/><rect x="0" y="0" width="1230.61" height="1205.85" transform="scale(1 -1)" fill="url(#paint0_diamond_332_4)" opacity="1" shape-rendering="crispEdges"/><rect x="0" y="0" width="1230.61" height="1205.85" transform="scale(-1 1)" fill="url(#paint0_diamond_332_4)" opacity="1" shape-rendering="crispEdges"/><rect x="0" y="0" width="1230.61" height="1205.85" transform="scale(-1)" fill="url(#paint0_diamond_332_4)" opacity="1" shape-rendering="crispEdges"/></g></g><path fill-rule="evenodd" clip-rule="evenodd" d="M41.6374 0C49.9881 0 56.7575 6.76953 56.7575 15.1202C56.7575 23.4708 49.9881 30.2403 41.6374 30.2403C33.2867 30.2403 26.5172 23.4708 26.5172 15.1202C26.5172 6.76953 33.2867 0 41.6374 0ZM16.3774 77.6507C9.62159 72.7425 8.12395 63.2867 13.0323 56.5309C17.9407 49.775 27.3963 48.2775 34.1522 53.186C40.908 58.0941 42.4056 67.5499 37.4974 74.3058C32.5889 81.0616 23.1332 82.5592 16.3774 77.6507ZM70.2914 56.5309C75.1999 63.2867 73.7023 72.7425 66.9465 77.6507C60.1906 82.5592 50.7348 81.0616 45.8266 74.3058C40.9182 67.5499 42.4157 58.0941 49.1715 53.186C55.9274 48.2775 65.3832 49.775 70.2914 56.5309ZM0.744118 29.637C3.32461 21.6952 11.8547 17.3489 19.7966 19.9294C27.7386 22.5099 32.0849 31.0401 29.5044 38.9819C26.9239 46.9237 18.3938 51.27 10.4519 48.6895C2.50992 46.109 -1.83637 37.5791 0.744118 29.637ZM63.4679 19.9294C71.41 17.3489 79.9399 21.6952 82.5204 29.637C85.1009 37.5791 80.7546 46.109 72.8128 48.6895C64.8706 51.27 56.3407 46.9237 53.7602 38.9819C51.1798 31.0401 55.5261 22.5099 63.4679 19.9294Z" data-figma-gradient-fill="{&#34;type&#34;:&#34;GRADIENT_DIAMOND&#34;,&#34;stops&#34;:[{&#34;color&#34;:{&#34;r&#34;:0.15782752633094788,&#34;g&#34;:0.78945690393447876,&#34;b&#34;:1.0,&#34;a&#34;:1.0},&#34;position&#34;:0.36538460850715637},{&#34;color&#34;:{&#34;r&#34;:0.94509804248809814,&#34;g&#34;:0.85098040103912354,&#34;b&#34;:0.082352943718433380,&#34;a&#34;:1.0},&#34;position&#34;:1.0}],&#34;stopsVar&#34;:[{&#34;color&#34;:{&#34;r&#34;:0.15782752633094788,&#34;g&#34;:0.78945690393447876,&#34;b&#34;:1.0,&#34;a&#34;:1.0},&#34;position&#34;:0.36538460850715637},{&#34;color&#34;:{&#34;r&#34;:0.94509804248809814,&#34;g&#34;:0.85098040103912354,&#34;b&#34;:0.082352943718433380,&#34;a&#34;:1.0},&#34;position&#34;:1.0}],&#34;transform&#34;:{&#34;m00&#34;:35.569301605224609,&#34;m01&#34;:-83.574455261230469,&#34;m02&#34;:66.039031982421875,&#34;m10&#34;:80.839347839355469,&#34;m11&#34;:36.772758483886719,&#34;m12&#34;:-18.386379241943359},&#34;opacity&#34;:1.0,&#34;blendMode&#34;:&#34;NORMAL&#34;,&#34;visible&#34;:true}"/>
<defs>
<clipPath id="paint0_diamond_332_4_clip_path"><path fill-rule="evenodd" clip-rule="evenodd" d="M41.6374 0C49.9881 0 56.7575 6.76953 56.7575 15.1202C56.7575 23.4708 49.9881 30.2403 41.6374 30.2403C33.2867 30.2403 26.5172 23.4708 26.5172 15.1202C26.5172 6.76953 33.2867 0 41.6374 0ZM16.3774 77.6507C9.62159 72.7425 8.12395 63.2867 13.0323 56.5309C17.9407 49.775 27.3963 48.2775 34.1522 53.186C40.908 58.0941 42.4056 67.5499 37.4974 74.3058C32.5889 81.0616 23.1332 82.5592 16.3774 77.6507ZM70.2914 56.5309C75.1999 63.2867 73.7023 72.7425 66.9465 77.6507C60.1906 82.5592 50.7348 81.0616 45.8266 74.3058C40.9182 67.5499 42.4157 58.0941 49.1715 53.186C55.9274 48.2775 65.3832 49.775 70.2914 56.5309ZM0.744118 29.637C3.32461 21.6952 11.8547 17.3489 19.7966 19.9294C27.7386 22.5099 32.0849 31.0401 29.5044 38.9819C26.9239 46.9237 18.3938 51.27 10.4519 48.6895C2.50992 46.109 -1.83637 37.5791 0.744118 29.637ZM63.4679 19.9294C71.41 17.3489 79.9399 21.6952 82.5204 29.637C85.1009 37.5791 80.7546 46.109 72.8128 48.6895C64.8706 51.27 56.3407 46.9237 53.7602 38.9819C51.1798 31.0401 55.5261 22.5099 63.4679 19.9294Z"/></clipPath><linearGradient id="paint0_diamond_332_4" x1="0" y1="0" x2="500" y2="500" gradientUnits="userSpaceOnUse">
<stop offset="0.365385" stop-color="#28C9FF"/>
<stop offset="1" stop-color="#F1D915"/>
</linearGradient>
</defs>
</svg>
